<?xml version="1.0" standalone="no"?>
<!DOCTYPE svg PUBLIC "-//W3C//DTD SVG 20010904//EN"
 "http://www.w3.org/TR/2001/REC-SVG-20010904/DTD/svg10.dtd">
<svg version="1.0" xmlns="http://www.w3.org/2000/svg"
 width="581.000000pt" height="148.000000pt" viewBox="0 0 581.000000 148.000000"
 preserveAspectRatio="xMidYMid meet">
<metadata>
Created by potrace 1.15, written by Peter Selinger 2001-2017
</metadata>
<g transform="translate(0.000000,148.000000) scale(0.100000,-0.100000)"
fill="#000000" stroke="none">
<path d="M10 1458 c0 -4 5 -10 12 -14 11 -7 10 -138 -9 -721 l-6 -213 81 0 82
0 0 180 0 180 48 0 c26 0 56 3 68 6 19 5 22 -4 48 -158 16 -90 32 -172 36
-184 7 -18 18 -21 74 -23 36 -1 66 1 66 5 0 32 -74 356 -87 382 -16 31 -15 33
5 55 40 43 52 89 52 209 0 62 -5 129 -10 149 -14 50 -53 104 -73 103 -9 -1
-15 2 -12 6 11 18 -72 32 -220 38 -85 4 -155 4 -155 0z m317 -173 c23 -26 25
-34 21 -127 -3 -95 -4 -101 -31 -124 -23 -20 -39 -24 -88 -24 l-59 0 0 148 c0
82 3 152 8 156 4 4 34 6 66 4 50 -4 63 -9 83 -33z"/>
<path d="M665 1461 c-63 -16 -105 -53 -124 -110 -7 -23 -11 -145 -11 -370 0
-305 2 -340 19 -377 36 -79 106 -110 232 -101 120 8 168 44 189 140 17 78 10
683 -9 717 -22 41 -54 71 -90 86 -41 17 -164 26 -206 15z m144 -149 c22 -17
22 -21 21 -317 -1 -321 -3 -338 -52 -347 -44 -8 -85 10 -102 46 -13 29 -16 75
-16 293 0 252 6 318 32 335 23 14 95 9 117 -10z"/>
<path d="M2056 1428 c-9 -71 -17 -830 -10 -876 l7 -42 207 0 208 0 6 27 c3 16
7 46 8 68 l3 40 -133 5 c-72 3 -132 8 -132 13 0 4 0 64 0 133 l0 126 89 -7 88
-7 8 67 c4 37 5 68 3 70 -1 2 -43 5 -93 7 l-90 4 -3 132 -3 132 135 0 134 0
-15 53 c-8 28 -15 60 -16 70 -1 15 -16 17 -162 17 -88 1 -177 3 -197 6 l-37 5
-5 -43z"/>
<path d="M1111 1442 c-84 -42 -94 -98 -89 -499 3 -296 3 -299 28 -347 33 -63
78 -88 174 -94 132 -8 213 35 241 131 15 52 21 217 8 217 -5 -1 -37 -9 -73
-18 l-65 -17 -6 -65 c-8 -96 -11 -100 -80 -100 -93 0 -90 -9 -87 353 2 220 6
309 15 318 6 6 34 14 61 17 41 4 53 1 71 -17 11 -11 21 -33 21 -47 0 -25 2
-25 43 -19 115 18 105 11 96 65 -17 105 -72 140 -225 140 -74 0 -107 -4 -133
-18z"/>
<path d="M1501 1386 c1 -39 6 -251 12 -471 l12 -400 70 0 70 0 5 160 c5 153 6
163 35 218 16 31 32 57 35 57 3 0 18 -44 33 -98 16 -53 49 -149 75 -212 l47
-115 68 -3 c37 -2 67 1 67 5 0 9 -98 349 -126 436 -15 48 -26 64 -60 87 l-41
29 93 183 c51 101 93 186 94 189 0 3 -33 6 -73 6 l-73 0 -84 -163 c-47 -90
-88 -164 -91 -164 -3 0 -5 19 -5 43 -1 194 -5 290 -14 277 -8 -12 -13 -13 -29
-3 -11 7 -43 12 -71 12 l-50 -2 1 -71z"/>
<path d="M2493 1434 c3 -16 9 -48 12 -71 l7 -42 76 -3 77 -3 3 -404 2 -404 80
5 c44 3 82 7 84 9 2 2 -2 155 -10 339 -7 184 -13 363 -14 398 l0 62 75 0 75 0
0 65 0 65 -152 0 c-84 0 -191 3 -237 7 l-83 6 5 -29z"/>
<path d="M3280 1450 c-74 -18 -110 -111 -90 -235 6 -37 17 -82 25 -99 8 -17
75 -107 149 -201 75 -93 136 -178 136 -188 0 -48 -50 -97 -100 -97 -55 0 -86
38 -92 110 -2 21 -8 35 -15 34 -7 -1 -38 -2 -69 -2 l-57 -2 7 -67 c9 -91 40
-153 88 -176 21 -10 71 -21 111 -24 95 -7 163 14 207 63 l30 35 1 -33 c2 -36
14 38 25 150 9 93 -10 132 -168 341 -127 167 -139 186 -136 220 3 33 6 37 44
45 49 10 95 -8 104 -39 13 -50 21 -53 89 -42 l63 10 -6 54 c-7 59 -36 96 -99
130 -37 19 -190 28 -247 13z"/>
<path d="M3633 1434 c3 -16 9 -48 12 -71 l7 -43 79 0 79 0 0 -406 0 -405 90 2
c90 2 90 2 90 28 0 14 -9 181 -20 371 -11 190 -20 360 -20 378 l0 32 75 0 75
0 0 65 0 65 -152 0 c-84 0 -191 3 -237 7 l-83 6 5 -29z"/>
<path d="M4135 1452 c-10 -10 -5 -744 5 -789 26 -118 85 -157 232 -158 83 0
101 3 125 21 36 27 70 77 83 123 6 21 10 183 10 391 -1 351 -1 355 -23 382
-17 20 -35 28 -74 34 l-53 7 0 -380 c0 -364 -1 -381 -20 -405 -11 -14 -31 -28
-44 -30 -36 -7 -85 17 -96 47 -6 16 -10 172 -10 385 l0 360 -22 4 c-34 7 -108
12 -113 8z"/>
<path d="M4610 1454 c0 -3 10 -19 21 -36 21 -29 21 -34 18 -466 l-4 -437 125
-3 c178 -4 225 3 267 41 52 48 62 109 62 357 0 268 -11 415 -33 461 -10 22
-33 45 -59 59 -39 22 -54 24 -219 27 -98 1 -178 0 -178 -3z m335 -155 c6 -6
10 -119 10 -309 0 -348 5 -329 -99 -337 l-66 -6 0 338 0 338 72 -7 c40 -4 77
-11 83 -17z"/>
<path d="M5240 1449 c-25 -4 -60 -11 -78 -14 l-34 -6 6 -362 c7 -424 14 -539
29 -549 7 -4 40 -8 75 -8 l62 0 0 475 c0 261 -3 475 -7 474 -5 -1 -28 -5 -53
-10z"/>
<path d="M5441 1438 c-30 -15 -52 -36 -65 -63 -20 -38 -21 -56 -21 -400 l0
-360 24 -39 c36 -57 85 -76 201 -76 114 0 161 21 194 85 20 38 21 54 21 395 0
348 0 356 -22 390 -36 59 -93 84 -198 88 -79 3 -96 0 -134 -20z m198 -133 c13
-13 17 -48 19 -188 2 -95 1 -232 -3 -306 -6 -114 -10 -136 -27 -153 -24 -24
-88 -20 -119 8 -18 16 -19 34 -19 324 0 234 3 310 13 318 31 25 110 24 136 -3z"/>
<path d="M1333 308 c-36 -40 -43 -64 -43 -145 0 -125 34 -163 144 -163 113 0
146 33 146 145 l0 65 -91 0 -90 0 3 -37 3 -38 58 -3 c61 -3 62 -4 47 -33 -9
-16 -22 -19 -75 -19 -75 0 -78 4 -73 105 l3 60 94 5 95 5 0 35 0 35 -100 3
c-93 2 -101 1 -121 -20z"/>
<path d="M1739 301 c-28 -28 -29 -33 -29 -125 0 -106 11 -141 51 -162 36 -18
142 -18 178 1 40 20 61 71 61 149 0 130 -33 166 -153 166 -73 0 -80 -2 -108
-29z m189 -116 c5 -101 2 -105 -73 -105 -76 0 -85 10 -85 89 0 80 2 82 84 79
l71 -3 3 -60z"/>
<path d="M2310 302 c-33 -34 -46 -94 -37 -180 10 -99 54 -129 177 -119 50 4
68 10 82 27 24 30 35 77 30 133 l-4 48 -87 -3 -86 -3 0 -35 0 -35 58 -3 c58
-3 71 -14 45 -40 -16 -16 -120 -16 -136 0 -13 13 -16 126 -4 145 5 8 41 13 97
15 l90 3 0 35 0 35 -98 3 c-96 3 -98 2 -127 -26z"/>
<path d="M2690 187 c0 -181 -1 -180 136 -185 l94 -4 0 41 0 41 -80 0 -79 0 -3
123 -3 122 -32 3 -33 3 0 -144z"/>
<path d="M3079 301 c-30 -31 -32 -37 -29 -155 3 -122 37 -152 161 -144 82 6
105 22 119 84 22 93 6 190 -37 224 -21 16 -40 20 -105 20 -75 0 -81 -2 -109
-29z m185 -67 c11 -28 6 -130 -6 -142 -16 -16 -120 -16 -136 0 -12 12 -17 114
-6 142 9 23 139 23 148 0z"/>
<path d="M3480 308 c-18 -20 -20 -35 -20 -165 l0 -143 95 0 c125 0 159 14 176
70 10 32 10 49 1 72 -8 21 -8 36 0 53 16 34 1 91 -29 115 -21 17 -40 20 -114
20 -78 0 -91 -3 -109 -22z"/>
<path d="M3907 309 c-37 -29 -49 -79 -45 -199 l3 -105 30 0 c30 0 30 0 33 62
l3 63 80 0 80 0 -2 -62 -3 -63 32 -3 32 -3 0 136 0 137 -29 29 c-28 27 -34 29
-109 29 -65 0 -84 -4 -105 -21z"/>
<path d="M4280 186 c0 -186 3 -190 150 -184 l75 3 3 37 3 37 -83 3 -83 3 -3
123 -3 122 -29 0 -30 0 0 -144z"/>
</g>
</svg>
